<svg width="20" height="20" viewBox="0 0 20 20" fill="none" xmlns="http://www.w3.org/2000/svg">
<g clip-path="url(#clip0_26_2)">
<path d="M10.0002 20C15.5141 20 20 15.514 20 9.99995C20 4.48604 15.5141 0 10.0002 0C4.48631 0 0.000366211 4.48604 0.000366211 9.99995C0.000366211 15.514 4.48631 20 10.0002 20ZM10.0002 1.36892C14.7593 1.36892 18.6311 5.24077 18.6312 9.99995C18.6312 14.7591 14.7594 18.631 10.0002 18.6311C5.24114 18.631 1.36938 14.7591 1.36938 9.99986C1.36938 5.24086 5.24114 1.36892 10.0002 1.36892Z" fill="black"/>
<path d="M8.65712 14.283C8.92442 14.5503 9.35782 14.5502 9.62504 14.283C9.89243 14.0156 9.89243 13.5823 9.62494 13.3149L6.99479 10.6849L14.6112 10.6841C14.9892 10.6841 15.2956 10.3777 15.2956 9.99951C15.2955 9.6215 14.9891 9.31523 14.6111 9.31523L6.99443 9.31596L9.62522 6.68535C9.89252 6.41805 9.89252 5.98456 9.62522 5.71735C9.49152 5.58374 9.31639 5.51685 9.14117 5.51685C8.96604 5.51685 8.79091 5.58374 8.65721 5.71726L4.85809 9.51628C4.72969 9.64459 4.65759 9.81863 4.65759 10.0002C4.65768 10.1818 4.72978 10.3558 4.85819 10.4844L8.65712 14.283Z" fill="black"/>
</g>
<defs>
<clipPath id="clip0_26_2">
<rect width="20" height="20" fill="white"/>
</clipPath>
</defs>
</svg>
